<?xml version="1.0" encoding="UTF-8"?>
<svg version="1.1" xmlns="http://www.w3.org/2000/svg" width="500" height="500">
<path d="M0 0 C165 0 330 0 500 0 C500 165 500 330 500 500 C335 500 170 500 0 500 C0 335 0 170 0 0 Z " fill="#000000" transform="translate(0,0)"/>
<path d="M0 0 C-0.65694905 3.70266014 -1.65336673 7.11827508 -2.9074707 10.66162109 C-3.30410416 11.78722946 -3.70073761 12.91283783 -4.10939026 14.07255554 C-4.7610038 15.90449211 -4.7610038 15.90449211 -5.42578125 17.7734375 C-5.88520627 19.07212399 -6.34438316 20.37089829 -6.80332947 21.66975403 C-8.04314969 25.17516482 -9.28765374 28.67889573 -10.53327942 32.18224716 C-11.31544869 34.38329772 -12.09624108 36.5848319 -12.87658691 38.78652954 C-20.30655523 59.74773772 -27.84643857 80.66656059 -35.48052979 101.55438232 C-42.07636361 119.60715365 -48.50964495 137.71245519 -54.86135864 155.85244751 C-63.07168115 179.29676939 -71.50491717 202.6575573 -80 226 C-70.76 226.33 -61.52 226.66 -52 227 C-51.34 223.7 -50.68 220.4 -50 217 C-49.55467893 215.33875623 -49.08172641 213.68402854 -48.5546875 212.046875 C-48.28664307 211.19552979 -48.01859863 210.34418457 -47.74243164 209.46704102 C-47.4561792 208.57041748 -47.16992676 207.67379395 -46.875 206.75 C-44.55056003 199.36030749 -42.44329914 191.95377123 -40.5509491 184.4412384 C-35.02681224 162.5369669 -28.68917671 142.88144101 -8.47265625 130.4453125 C7.44435938 121.42333301 23.75278475 115.78359594 42.125 115.875 C42.91003906 115.87113281 43.69507813 115.86726562 44.50390625 115.86328125 C48.46883962 115.86996748 52.12967261 116.02076054 56 117 C56.2593893 128.51400276 55.69746336 139.60813477 54 151 C53.72542969 152.94132812 53.72542969 152.94132812 53.4453125 154.921875 C48.62370079 184.56585809 34.16992623 210.99291936 13 232 C12.21882812 232.77859375 11.43765625 233.5571875 10.6328125 234.359375 C-0.66763017 245.13175961 -13.41567614 251.73673993 -28 257 C-28.80824219 257.31710937 -29.61648437 257.63421875 -30.44921875 257.9609375 C-53.56459847 266.59181865 -81.81160487 263.36129575 -104.375 254.75 C-116.9908773 248.97146161 -127.78757552 241.32379317 -138 232 C-138.78761719 231.30648437 -139.57523438 230.61296875 -140.38671875 229.8984375 C-153.67044293 217.5448125 -161.94833048 201.45503992 -169 185 C-169.76957031 183.23462891 -169.76957031 183.23462891 -170.5546875 181.43359375 C-177.69888926 163.35121974 -180.18739816 142.99927806 -180.18530273 123.6940918 C-180.18747119 121.46708525 -180.20562225 119.24058999 -180.22460938 117.01367188 C-180.27671943 104.10407767 -179.0037939 91.59909894 -175.75 79.0625 C-175.53311523 78.21969482 -175.31623047 77.37688965 -175.09277344 76.50854492 C-166.18717145 42.95418751 -146.55693551 12.60576286 -116.09472656 -5.10791016 C-78.60210877 -26.11236079 -36.08644952 -21.90764424 0 0 Z " fill="#000000" transform="translate(251,144)"/>
<path d="M0 0 C9.24 0 18.48 0 28 0 C33.40536162 11.52138831 38.6969625 23.09031954 43.9375 34.6875 C44.35073517 35.60139496 44.76397034 36.51528992 45.18972778 37.45687866 C52.81283539 54.3197961 60.34935756 71.22008133 67.84570312 88.13964844 C71.95302217 97.40853337 76.0706907 106.67282743 80.1875 115.9375 C80.6182785 116.90708649 81.04905701 117.87667297 81.4928894 118.87564087 C86.96850373 131.19896446 92.46256766 143.51358517 97.98901367 155.81420898 C103.46772498 168.01967112 108.89208999 180.24923552 114.32177734 192.4765625 C119.36216504 203.82632522 124.41048806 215.17216241 129.5 226.5 C135.47391844 239.79628041 141.38984612 253.11810243 147.30566406 266.44030762 C153.66473915 280.75960773 160.04838079 295.06745724 166.46875 309.359375 C166.89929688 310.32037109 167.32984375 311.28136719 167.7734375 312.27148438 C168.5853069 314.07750596 169.40293945 315.88094883 170.2265625 317.68164062 C170.59523438 318.49310547 170.96390625 319.30457031 171.34375 320.140625 C171.66537109 320.84219727 171.98699219 321.54376953 172.31835938 322.26660156 C173 324 173 324 173 326 C163.43 326 153.86 326 144 326 C141.97359375 321.40578125 141.97359375 321.40578125 139.90625 316.71875 C138.56993516 313.69636704 137.23229402 310.67457434 135.89453125 307.65283203 C134.97778431 305.58020073 134.06237971 303.50697507 133.1484375 301.43310547 C126.59661442 286.56514988 126.59661442 286.56514988 119.59375 271.90625 C119.28618774 271.28383423 118.97862549 270.66141846 118.66174316 270.0201416 C105.37404892 243.74537968 80.23440049 231.24797681 54 221 C54.04640625 222.03253906 54.0928125 223.06507813 54.140625 224.12890625 C55.27000612 260.93218569 41.25937389 296.70275591 16.29052734 323.56542969 C7.09122201 333.24389856 -2.38400004 341.34725628 -14 348 C-14.59200195 348.3412793 -15.18400391 348.68255859 -15.79394531 349.03417969 C-31.21469209 357.74011182 -49.28253658 364.52770374 -67 366 C-67.91523438 366.10699219 -68.83046875 366.21398437 -69.7734375 366.32421875 C-84.15402351 367.84107508 -98.77442106 367.59732501 -113 365 C-113.6511377 364.88172852 -114.30227539 364.76345703 -114.97314453 364.64160156 C-138.86770767 360.12582214 -159.3325662 349.2824058 -178 334 C-179.23363281 332.99839844 -179.23363281 332.99839844 -180.4921875 331.9765625 C-186.44731016 326.92810211 -191.2400654 321.16744215 -196 315 C-196.98613281 313.77216797 -196.98613281 313.77216797 -197.9921875 312.51953125 C-223.524535 279.45052695 -229.7280247 236.70033201 -225.60449219 196.10644531 C-220.43507207 158.92598679 -200.89798667 124.63259219 -171.08203125 101.76171875 C-139.49918669 79.04561067 -100.45882067 70.12729839 -61.9375 76.125 C-47.33636426 78.66412186 -33.42103205 83.82588738 -20 90 C-19.8367775 89.35847992 -19.67355499 88.71695984 -19.50538635 88.05599976 C-17.52189628 80.50299837 -15.0510496 73.19443128 -12.40234375 65.8515625 C-11.96741104 64.63600677 -11.53247833 63.42045105 -11.08436584 62.1680603 C-10.17160892 59.61748624 -9.25623552 57.06787412 -8.33862305 54.51904297 C-7.16617757 51.26235231 -5.99818269 48.00408899 -4.83185482 44.74520302 C-3.71090165 41.61349254 -2.58795084 38.48250125 -1.46484375 35.3515625 C-1.0471019 34.18694489 -0.62936005 33.02232727 -0.19895935 31.82241821 C0.19162155 30.73713837 0.58220245 29.65185852 0.98461914 28.53369141 C1.32642715 27.58313873 1.66823517 26.63258606 2.020401 25.65322876 C2.68206997 23.86110857 3.38803844 22.08481983 4.1337738 20.32601929 C5.89766032 15.58957275 3.92250047 11.67102416 1.9375 7.3125 C1.57527344 6.56613281 1.21304688 5.81976563 0.83984375 5.05078125 C0 3 0 3 0 0 Z M-163 112 C-163.82371094 112.74765625 -164.64742187 113.4953125 -165.49609375 114.265625 C-190.35794362 137.69239149 -203.16259173 175.52373446 -204.29058838 208.99899292 C-204.36807448 212.45807466 -204.38432374 215.91515304 -204.375 219.375 C-204.37478851 220.10757019 -204.37457703 220.84014038 -204.37435913 221.59490967 C-204.31897048 240.98513753 -201.75150146 259.75323075 -195 278 C-194.77586426 278.61987793 -194.55172852 279.23975586 -194.32080078 279.87841797 C-183.08579314 310.71324135 -162.7651653 336.87530257 -132.84765625 351.42333984 C-126.73626546 354.25970554 -120.51688768 356.29672254 -114 358 C-113.0821875 358.29777344 -112.164375 358.59554688 -111.21875 358.90234375 C-85.29374858 366.4638025 -56.20230023 360.04628634 -32.859375 347.8984375 C-23.72625197 342.8676656 -16.35206193 336.33158265 -9 329 C-8.12859375 328.13246094 -7.2571875 327.26492188 -6.359375 326.37109375 C-5.58078125 325.58863281 -4.8021875 324.80617188 -4 324 C-3.38898438 323.39800781 -2.77796875 322.79601562 -2.1484375 322.17578125 C9.71641427 309.70984668 16.94463327 293.89107199 23 278 C23.61294922 276.47052734 23.61294922 276.47052734 24.23828125 274.91015625 C30.14945939 259.00246836 32.25950688 240.70962854 32.0625 223.8125 C32.05573242 222.67071289 32.05573242 222.67071289 32.04882812 221.50585938 C32.03728522 219.67053705 32.01936378 217.83525648 32 216 C10.62974731 210.76302108 -13.57603694 218.38999417 -32 229 C-49.04172166 239.87144313 -56.95286768 254.78946177 -62 274 C-62.8030921 277.00567446 -63.60837089 280.01075961 -64.41357422 283.01586914 C-65.01390945 285.25921853 -65.61188364 287.50320105 -66.20751953 289.74780273 C-68.55276219 298.52515349 -71.13003764 307.21537344 -73.86645508 315.87841797 C-74.28640747 317.22057373 -74.28640747 317.22057373 -74.71484375 318.58984375 C-74.96355225 319.37222412 -75.21226074 320.15460449 -75.46850586 320.96069336 C-76.12610012 323.13259934 -76.12610012 323.13259934 -76 326 C-85.24 325.67 -94.48 325.34 -104 325 C-102.78828125 321.6071875 -101.5765625 318.214375 -100.328125 314.71875 C-99.90752304 313.54105545 -99.48692108 312.3633609 -99.05357361 311.14997864 C-97.1051594 305.69438259 -95.15671953 300.23879571 -93.20818615 294.78324223 C-92.04111969 291.51565636 -90.87407103 288.24806414 -89.70703125 284.98046875 C-89.47011126 284.31711706 -89.23319126 283.65376537 -88.98909187 282.97031212 C-85.62072528 273.53912616 -82.25338587 264.10757404 -78.88671875 254.67578125 C-71.16201626 233.03633769 -63.43081103 211.39928602 -55.67330933 189.77157593 C-54.50978764 186.5272912 -53.34672319 183.28284296 -52.18383789 180.03833008 C-51.80004471 178.96754715 -51.41625153 177.89676422 -51.02082825 176.79353333 C-50.23987616 174.6146557 -49.45894157 172.43577181 -48.67802429 170.25688171 C-46.29898426 163.62008351 -43.91704103 156.9843357 -41.5330162 150.34932709 C-39.65780166 145.1297735 -37.7852354 139.90927397 -35.91440201 134.6881485 C-34.789752 131.54981097 -33.66348357 128.41207758 -32.53491211 125.27514648 C-31.2882794 121.80957765 -30.04598669 118.34248211 -28.8046875 114.875 C-28.43274261 113.84427368 -28.06079773 112.81354736 -27.67758179 111.75158691 C-27.16791367 110.3238092 -27.16791367 110.3238092 -26.64794922 108.8671875 C-26.35217987 108.04331543 -26.05641052 107.21944336 -25.75167847 106.37060547 C-24.97811157 103.93096939 -24.45504677 101.51683645 -24 99 C-38.45078253 90.45485921 -52.24211725 83.80344106 -69 81 C-69.77472656 80.86851563 -70.54945313 80.73703125 -71.34765625 80.6015625 C-106.11291597 75.79290975 -137.86326048 88.25753288 -163 112 Z " fill="#FBFBFB" transform="translate(275,45)"/>
<path d="M0 0 C3.34680423 0.57703521 4.83437328 1.39196619 7 4 C8.13520648 6.24294682 9.16902078 8.45681363 10.16015625 10.76171875 C10.4620134 11.4475705 10.76387054 12.13342224 11.07487488 12.84005737 C11.73130857 14.33353372 12.38456767 15.82840848 13.03503418 17.32449341 C14.43999925 20.55568773 15.86012296 23.78014479 17.27944946 27.00505066 C18.03019208 28.7111055 18.78015708 30.41750273 19.52938843 32.1242218 C23.33079798 40.77718724 27.20931336 49.39481994 31.0975647 58.0090332 C33.01267641 62.25237265 34.92450459 66.49718989 36.8359375 70.7421875 C37.20046524 71.55173889 37.56499298 72.36129028 37.94056702 73.19537354 C42.69387187 83.75694785 47.38991756 94.34379174 52.08325195 104.93212891 C55.59430095 112.8518586 59.1089165 120.77000435 62.625 128.6875 C63.04873901 129.64183929 63.47247803 130.59617859 63.90905762 131.57943726 C71.03240126 147.61846172 78.21337915 163.63100211 85.43994141 179.6237793 C85.80067749 180.42305344 86.16141357 181.22232758 86.53308105 182.04582214 C87.20101113 183.52558362 87.86980708 185.00495472 88.53967285 186.48384094 C93.27962299 196.9881057 93.27962299 196.9881057 93 203 C88.30020774 201.45120482 84.87694419 198.8400757 81 195.875 C72.97019333 189.87760965 64.83405598 183.89067169 55.48046875 180.140625 C44.12170432 175.38620625 44.12170432 175.38620625 42.15234375 171.19677734 C41.29509883 167.51296538 41.27686859 163.85684621 41.21875 160.08984375 C41.12142197 154.43486416 39.83911631 149.29890061 38.3125 143.875 C38.05049805 142.94413574 37.78849609 142.01327148 37.51855469 141.05419922 C35.0587063 132.67745802 31.85875501 124.8193985 28 117 C27.47921875 115.90816406 26.9584375 114.81632812 26.421875 113.69140625 C16.05119731 93.1262517 -0.41171802 75.07496834 -20 63 C-18.73992691 55.96797919 -16.96802112 49.24384107 -14.8125 42.4375 C-12.80780672 36.02523855 -10.86831455 29.60999617 -9.125 23.12109375 C-8.82102295 21.99453369 -8.5170459 20.86797363 -8.20385742 19.70727539 C-7.62096115 17.52815975 -7.04779181 15.34641292 -6.4855957 13.16186523 C-5.08421615 7.94714475 -3.93467437 3.9261021 0 0 Z " fill="#020202" transform="translate(285,79)"/>
<path d="M0 0 C17.90819265 8.06852636 29.80999613 34.95223334 36.375 52.1875 C41.00409041 65.00038867 43.60834114 77.37027165 44 91 C43.36578125 90.9278125 42.7315625 90.855625 42.078125 90.78125 C19.91392284 88.5770752 1.05327033 90.27052795 -18.8984375 100.64453125 C-21.93469094 101.97145813 -23.74181745 102.31117474 -27 102 C-27.35589739 94.84573609 -26.18859972 89.32288367 -23.9375 82.5625 C-23.28023678 80.49854429 -22.62671791 78.43339321 -21.9765625 76.3671875 C-21.64301758 75.30854492 -21.30947266 74.24990234 -20.96582031 73.15917969 C-19.45053058 68.2026961 -18.12957919 63.19963985 -16.8125 58.1875 C-13.56562962 45.91543061 -10.10949698 33.70635702 -6.625 21.5 C-6.35402496 20.54797699 -6.08304993 19.59595398 -5.80386353 18.61508179 C-5.03036289 15.89898412 -4.25399481 13.18372458 -3.4765625 10.46875 C-3.24145462 9.64288895 -3.00634674 8.81702789 -2.76411438 7.96614075 C-1.1152469 2.2304938 -1.1152469 2.2304938 0 0 Z " fill="#020202" transform="translate(261,154)"/>
</svg>
