<svg xmlns="http://www.w3.org/2000/svg" xmlns:xlink="http://www.w3.org/1999/xlink" width="500" zoomAndPan="magnify" viewBox="0 0 375 374.999991" height="500" preserveAspectRatio="xMidYMid meet" version="1.0"><defs><g/></defs><g fill="#000000" fill-opacity="1"><g transform="translate(25.92857, 304.759353)"><g><path d="M 115.71875 4.21875 C 101.25 4.21875 87.65625 1.617188 74.9375 -3.578125 C 62.21875 -8.773438 51.046875 -16.222656 41.421875 -25.921875 C 31.796875 -35.617188 24.242188 -47.175781 18.765625 -60.59375 C 13.285156 -74.019531 10.546875 -88.953125 10.546875 -105.390625 C 10.546875 -121.828125 13.285156 -136.753906 18.765625 -150.171875 C 24.242188 -163.597656 31.796875 -175.160156 41.421875 -184.859375 C 51.046875 -194.554688 62.21875 -202.003906 74.9375 -207.203125 C 87.65625 -212.398438 101.25 -215 115.71875 -215 C 130.1875 -215 143.78125 -212.398438 156.5 -207.203125 C 169.21875 -202.003906 180.425781 -194.554688 190.125 -184.859375 C 199.820312 -175.160156 207.410156 -163.597656 212.890625 -150.171875 C 218.367188 -136.753906 221.109375 -121.828125 221.109375 -105.390625 C 221.109375 -88.953125 218.367188 -74.019531 212.890625 -60.59375 C 207.410156 -47.175781 199.820312 -35.617188 190.125 -25.921875 C 180.425781 -16.222656 169.21875 -8.773438 156.5 -3.578125 C 143.78125 1.617188 130.1875 4.21875 115.71875 4.21875 Z M 27.40625 -105.390625 C 27.40625 -89.648438 29.6875 -75.316406 34.25 -62.390625 C 38.820312 -49.460938 45.179688 -38.328125 53.328125 -28.984375 C 61.472656 -19.640625 70.847656 -12.472656 81.453125 -7.484375 C 92.066406 -2.492188 103.488281 0 115.71875 0 C 127.945312 0 139.398438 -2.492188 150.078125 -7.484375 C 160.753906 -12.472656 170.128906 -19.640625 178.203125 -28.984375 C 186.285156 -38.328125 192.644531 -49.460938 197.28125 -62.390625 C 201.925781 -75.316406 204.25 -89.648438 204.25 -105.390625 C 204.25 -121.265625 201.925781 -135.628906 197.28125 -148.484375 C 192.644531 -161.347656 186.285156 -172.453125 178.203125 -181.796875 C 170.128906 -191.140625 160.753906 -198.304688 150.078125 -203.296875 C 139.398438 -208.285156 127.945312 -210.78125 115.71875 -210.78125 C 103.488281 -210.78125 92.066406 -208.285156 81.453125 -203.296875 C 70.847656 -198.304688 61.472656 -191.140625 53.328125 -181.796875 C 45.179688 -172.453125 38.820312 -161.347656 34.25 -148.484375 C 29.6875 -135.628906 27.40625 -121.265625 27.40625 -105.390625 Z M 27.40625 -105.390625 "/></g></g></g><g fill="#000000" fill-opacity="1"><g transform="translate(122.859269, 278.209878)"><g><path d="M 26.359375 0 L 4.875 0 L 88.109375 -232.609375 L 82.984375 -244.078125 L 104.46875 -244.078125 L 213.328125 0 L 191.84375 0 L 174.03125 -39.78125 C 171.101562 -46.457031 166.789062 -52.476562 161.09375 -57.84375 C 155.394531 -63.21875 148.960938 -67.773438 141.796875 -71.515625 C 134.640625 -75.253906 127.238281 -78.097656 119.59375 -80.046875 C 111.945312 -82.003906 104.707031 -82.984375 97.875 -82.984375 C 90.0625 -82.984375 82.367188 -81.765625 74.796875 -79.328125 C 67.234375 -76.890625 59.875 -73.066406 52.71875 -67.859375 C 50.113281 -65.898438 47.507812 -62.679688 44.90625 -58.203125 C 42.300781 -53.734375 40.429688 -49.546875 39.296875 -45.640625 Z M 52.96875 -92.5 C 51.820312 -88.113281 52.226562 -85.921875 54.1875 -85.921875 C 55.164062 -85.921875 56.957031 -86.570312 59.5625 -87.875 C 64.4375 -90.632812 69.476562 -92.625 74.6875 -93.84375 C 79.894531 -95.0625 85.179688 -95.671875 90.546875 -95.671875 C 102.097656 -95.671875 113.488281 -93.226562 124.71875 -88.34375 C 135.945312 -83.46875 146.203125 -77.207031 155.484375 -69.5625 C 158.242188 -67.28125 159.988281 -66.425781 160.71875 -67 C 161.457031 -67.570312 161.09375 -69.484375 159.625 -72.734375 L 96.65625 -213.8125 C 95.1875 -217.226562 93.640625 -218.9375 92.015625 -218.9375 C 90.390625 -218.9375 88.925781 -216.984375 87.625 -213.078125 Z M 52.96875 -92.5 "/></g></g></g></svg>